<?xml version="1.0" encoding="UTF-8"?><svg version="1.1" viewBox="0 0 1920 1080" xmlns="http://www.w3.org/2000/svg"><defs><style>.a,.b{fill:#fff;}.b{stroke:#707070;}.c{clip-path:url(#h);}.d{opacity:0.15;clip-path:url(#o);}.e{opacity:0.2;clip-path:url(#n);}.f{opacity:0.25;clip-path:url(#m);}.g{opacity:0.17;clip-path:url(#l);}.h{opacity:0.1;clip-path:url(#k);}.i{clip-path:url(#j);}.j{font-size:98px;font-family:Arvo-Bold, Arvo;font-weight:700;}.k{fill:#707070;font-size:84px;}.l{font-size:65px;}.m{clip-path:url(#i);}</style><clipPath id="o"><circle class="a" transform="translate(128,146)" cx="405.83" cy="405.83" r="405.83"/></clipPath><clipPath id="n"><circle class="a" transform="translate(128,146)" cx="118.77" cy="118.77" r="118.77"/></clipPath><clipPath id="m"><circle class="a" transform="translate(128,146)" cx="461" cy="461" r="461"/></clipPath><clipPath id="l"><circle class="a" transform="translate(128,146)" cx="280.61" cy="280.61" r="280.61"/></clipPath><clipPath id="k"><circle class="a" transform="translate(128,146)" cx="370.83" cy="370.83" r="370.83"/></clipPath><clipPath id="j"><rect class="b" transform="translate(300,436)" width="1320" height="208"/></clipPath><clipPath id="i"><rect class="a" width="312" height="166.4"/></clipPath><clipPath id="h"><rect width="1920" height="1080"/></clipPath></defs><g class="c" clip-path="url(#h)"><rect class="a" width="1920" height="1080"/><g transform="translate(-60.918 -365.99)"><g class="d" transform="rotate(-2 17044 -30669)" clip-path="url(#o)"><g transform="translate(128,146)"><path d="m406 0c-224.23 0-406 181.77-406 406s181.77 406 406 406 406-181.77 406-406-181.77-406-406-406zm0 773.34c-202.87 0-367.33-164.46-367.33-367.34s164.46-367.33 367.33-367.33 367.34 164.46 367.34 367.33-164.46 367.34-367.34 367.34z"/><g transform="translate(38.667,38.667)"><circle transform="translate(0 348)" cx="19.334" cy="19.334" r="19.334"/><circle transform="translate(696.01 348)" cx="19.334" cy="19.334" r="19.334"/><circle transform="translate(46.624 522)" cx="19.334" cy="19.334" r="19.334"/><circle transform="translate(649.38 174)" cx="19.334" cy="19.334" r="19.334"/><circle transform="translate(174 649.38)" cx="19.334" cy="19.334" r="19.334"/><circle transform="translate(522 46.624)" cx="19.334" cy="19.334" r="19.334"/><g transform="translate(348)"><circle transform="translate(0 696.01)" cx="19.334" cy="19.334" r="19.334"/><circle cx="19.334" cy="19.334" r="19.334"/></g><g transform="translate(174 46.624)"><circle transform="translate(348 602.76)" cx="19.334" cy="19.334" r="19.334"/><circle cx="19.334" cy="19.334" r="19.334"/></g><g transform="translate(46.624 174)"><circle transform="translate(602.76 348)" cx="19.334" cy="19.334" r="19.334"/><circle cx="19.334" cy="19.334" r="19.334"/></g></g></g></g><g class="e" transform="matrix(.978 -.208 .208 .978 985.16 608.45)" clip-path="url(#n)"><g transform="translate(128,146)"><path d="m118.82 0a118.82 118.82 0 1 0 118.83 118.82 118.82 118.82 0 0 0-118.83-118.82zm0 226.33a107.51 107.51 0 1 1 107.51-107.51 107.51 107.51 0 0 1-107.51 107.51z"/><g transform="translate(11.317,11.317)"><circle transform="translate(0,101.85)" cx="5.658" cy="5.658" r="5.658"/><circle transform="translate(203.7 101.85)" cx="5.658" cy="5.658" r="5.658"/><circle transform="translate(13.645 152.78)" cx="5.658" cy="5.658" r="5.658"/><circle transform="translate(190.06 50.925)" cx="5.658" cy="5.658" r="5.658"/><circle transform="translate(50.925 190.06)" cx="5.658" cy="5.658" r="5.658"/><circle transform="translate(152.78 13.645)" cx="5.658" cy="5.658" r="5.658"/><g transform="translate(101.85)"><circle transform="translate(0 203.7)" cx="5.658" cy="5.658" r="5.658"/><circle cx="5.658" cy="5.658" r="5.658"/></g><g transform="translate(50.925,13.645)"><circle transform="translate(101.85,176.41)" cx="5.658" cy="5.658" r="5.658"/><circle cx="5.658" cy="5.658" r="5.658"/></g><g transform="translate(13.645,50.925)"><circle transform="translate(176.41,101.85)" cx="5.658" cy="5.658" r="5.658"/><circle cx="5.658" cy="5.658" r="5.658"/></g></g></g></g><g class="f" transform="matrix(.995 .105 -.105 .995 578.56 -65.251)" clip-path="url(#m)"><g transform="translate(128,146)"><path d="m461.2 0c-254.71 0-461.2 206.49-461.2 461.2s206.49 461.2 461.2 461.2 461.2-206.49 461.2-461.2-206.49-461.2-461.2-461.2zm0 878.48c-230.46 0-417.28-186.82-417.28-417.28s186.82-417.28 417.28-417.28 417.28 186.82 417.28 417.28-186.82 417.28-417.28 417.28z"/><g transform="translate(43.924,43.924)"><circle transform="translate(0 395.31)" cx="21.962" cy="21.962" r="21.962"/><circle transform="translate(790.63 395.31)" cx="21.962" cy="21.962" r="21.962"/><circle transform="translate(52.962 592.97)" cx="21.962" cy="21.962" r="21.962"/><circle transform="translate(737.67 197.66)" cx="21.962" cy="21.962" r="21.962"/><circle transform="translate(197.66 737.67)" cx="21.962" cy="21.962" r="21.962"/><circle transform="translate(592.97 52.962)" cx="21.962" cy="21.962" r="21.962"/><g transform="translate(395.31)"><circle transform="translate(0 790.63)" cx="21.962" cy="21.962" r="21.962"/><circle cx="21.962" cy="21.962" r="21.962"/></g><g transform="translate(197.66 52.962)"><circle transform="translate(395.31 684.7)" cx="21.962" cy="21.962" r="21.962"/><circle cx="21.962" cy="21.962" r="21.962"/></g><g transform="translate(52.962 197.66)"><circle transform="translate(684.7 395.31)" cx="21.962" cy="21.962" r="21.962"/><circle cx="21.962" cy="21.962" r="21.962"/></g></g></g></g><g class="g" transform="matrix(.998 -.07 .07 .998 282.46 626.23)" clip-path="url(#l)"><g transform="translate(128,146)"><path d="m280.73 0c-155.04 0-280.73 125.69-280.73 280.73s125.69 280.73 280.73 280.73 280.73-125.69 280.73-280.73-125.68-280.73-280.73-280.73zm0 534.72c-140.28 0-253.99-113.72-253.99-253.99s113.72-253.99 253.99-253.99 253.99 113.72 253.99 253.99-113.72 253.99-253.99 253.99z"/><g transform="translate(26.736,26.736)"><circle transform="translate(0 240.62)" cx="13.368" cy="13.368" r="13.368"/><circle transform="translate(481.24 240.62)" cx="13.368" cy="13.368" r="13.368"/><circle transform="translate(32.237 360.93)" cx="13.368" cy="13.368" r="13.368"/><circle transform="translate(449.01 120.31)" cx="13.368" cy="13.368" r="13.368"/><circle transform="translate(120.31 449.01)" cx="13.368" cy="13.368" r="13.368"/><circle transform="translate(360.93 32.237)" cx="13.368" cy="13.368" r="13.368"/><g transform="translate(240.62)"><circle transform="translate(0 481.24)" cx="13.368" cy="13.368" r="13.368"/><circle cx="13.368" cy="13.368" r="13.368"/></g><g transform="translate(120.31 32.237)"><circle transform="translate(240.62 416.77)" cx="13.368" cy="13.368" r="13.368"/><circle cx="13.368" cy="13.368" r="13.368"/></g><g transform="translate(32.237 120.31)"><circle transform="translate(416.77 240.62)" cx="13.368" cy="13.368" r="13.368"/><circle cx="13.368" cy="13.368" r="13.368"/></g></g></g></g><g class="h" transform="rotate(11 892.89 143.18)" clip-path="url(#k)"><g transform="translate(128,146)"><path d="m370.99 0c-204.89 0-370.99 166.1-370.99 370.99s166.1 370.99 370.99 370.99 370.99-166.1 370.99-370.99-166.1-370.99-370.99-370.99zm0 706.65c-185.38 0-335.66-150.28-335.66-335.66s150.28-335.66 335.66-335.66 335.66 150.28 335.66 335.66-150.28 335.66-335.66 335.66z"/><g transform="translate(35.332,35.332)"><circle transform="translate(0 317.99)" cx="17.666" cy="17.666" r="17.666"/><circle transform="translate(635.98 317.99)" cx="17.666" cy="17.666" r="17.666"/><circle transform="translate(42.603 476.99)" cx="17.666" cy="17.666" r="17.666"/><circle transform="translate(593.38 159)" cx="17.666" cy="17.666" r="17.666"/><circle transform="translate(159 593.38)" cx="17.666" cy="17.666" r="17.666"/><circle transform="translate(476.99 42.603)" cx="17.666" cy="17.666" r="17.666"/><g transform="translate(317.99)"><circle transform="translate(0 635.98)" cx="17.666" cy="17.666" r="17.666"/><circle cx="17.666" cy="17.666" r="17.666"/></g><g transform="translate(159 42.603)"><circle transform="translate(317.99 550.78)" cx="17.666" cy="17.666" r="17.666"/><circle cx="17.666" cy="17.666" r="17.666"/></g><g transform="translate(42.603 159)"><circle transform="translate(550.78 317.99)" cx="17.666" cy="17.666" r="17.666"/><circle cx="17.666" cy="17.666" r="17.666"/></g></g></g></g></g><g class="i" clip-path="url(#j)"><g transform="translate(300,436)"><g class="j" transform="translate(345,94)" aria-label="HORARIO ESCOLARNC CELAYA"><path d="m53.977-72.543h31.104v13.159h-7.6562v46.272h7.6562v13.111h-31.104v-13.111h7.5605v-18.566h-32.73v18.566h7.6562v13.111h-31.056v-13.111h7.5127v-46.272h-7.5127v-13.159h31.056v13.159h-7.6562v15.073h32.73v-15.073h-7.5605z"/><path d="m128.67 1.292q-4.9287 0-9.4268-1.3398-4.498-1.3398-8.4219-3.7803-3.876-2.4404-7.082-5.8379-3.1582-3.4453-5.4072-7.6084-2.249-4.2109-3.4932-8.9961-1.2441-4.7852-1.2441-10.001 0-5.2158 1.2441-10.001 1.2441-4.833 3.4932-8.9961 2.249-4.2109 5.4072-7.6084 3.206-3.4453 7.082-5.8857 3.9238-2.4404 8.4219-3.7803 4.498-1.3398 9.4268-1.3398t9.4268 1.3398q4.5459 1.3398 8.4219 3.7803 3.9238 2.4404 7.082 5.8857 3.206 3.3975 5.4551 7.6084 2.2969 4.1631 3.541 8.9961 1.2441 4.7852 1.2441 10.001 0 5.168-1.2441 10.001-1.2441 4.7852-3.541 8.9961-2.249 4.1631-5.4551 7.6084-3.1582 3.3975-7.082 5.8379-3.876 2.4404-8.4219 3.7803-4.498 1.3398-9.4268 1.3398zm0-15.025q4.1631 0 7.6084-1.7705 3.4932-1.8184 5.9814-4.8809 2.4883-3.1104 3.8281-7.1777 1.3877-4.1152 1.3877-8.709 0-4.6416-1.3877-8.7568-1.3877-4.1152-3.9238-7.1777-2.4883-3.1104-5.9336-4.8809-3.4453-1.8184-7.5606-1.8184-4.1152 0-7.5606 1.8184-3.4453 1.7705-5.9336 4.8809-2.4883 3.0625-3.9238 7.1777-1.3877 4.1152-1.3877 8.7568 0 4.5938 1.3877 8.709 1.4356 4.0674 3.9238 7.1777 2.4883 3.0625 5.9336 4.8809 3.4453 1.7705 7.5606 1.7705z"/><path d="m173.37-72.543h38.377q5.5986 0 10.001 1.6748t7.417 4.498q3.0146 2.7754 4.5938 6.5078 1.627 3.6846 1.627 7.7041 0 3.6846-0.81348 6.46-0.76563 2.7754-2.2969 4.9287-1.4834 2.1533-3.6846 3.8281-2.2012 1.627-5.0244 2.9668 2.4404 1.2441 4.3066 3.8281 1.8662 2.5361 2.8232 6.6035l2.4404 9.4268h5.9814l0.0957 14.116h-21.055l-2.8711-17.227q-0.43066-3.0625-1.3398-5.2637-0.86133-2.249-2.3447-3.6367-1.4834-1.4355-3.6367-2.1055-2.1055-0.66992-5.0244-0.66992h-6.1729v15.791h6.6514v13.111h-30.051v-13.111h7.5127v-46.272h-7.5127zm23.399 13.159v17.562h9.5225q2.7275 0 4.8809-0.47852 2.2012-0.52637 3.7324-1.5791 1.5791-1.1006 2.3926-2.7275 0.86132-1.627 0.86132-3.876 0-4.2109-3.0146-6.5557-3.0146-2.3447-8.8525-2.3447z"/><path d="m283.9-13.111h7.2256l-3.2539-10.432h-22.299l-3.2539 10.432h7.6562v13.111h-27.515v-13.111h5.4072l19.763-59.432h19.188l19.332 59.432h5.2637v13.111h-27.515zm-14.547-22.682h14.643l-7.3691-23.591z"/><path d="m317.93-72.543h38.377q5.5986 0 10.001 1.6748t7.417 4.498q3.0146 2.7754 4.5938 6.5078 1.627 3.6846 1.627 7.7041 0 3.6846-0.81348 6.46-0.76563 2.7754-2.2969 4.9287-1.4834 2.1533-3.6846 3.8281-2.2012 1.627-5.0244 2.9668 2.4404 1.2441 4.3066 3.8281 1.8662 2.5361 2.8232 6.6035l2.4404 9.4268h5.9814l0.0957 14.116h-21.055l-2.8711-17.227q-0.43066-3.0625-1.3398-5.2637-0.86133-2.249-2.3447-3.6367-1.4834-1.4355-3.6367-2.1055-2.1055-0.66992-5.0244-0.66992h-6.1728v15.791h6.6514v13.111h-30.051v-13.111h7.5127v-46.272h-7.5127zm23.399 13.159v17.562h9.5225q2.7275 0 4.8809-0.47852 2.2012-0.52637 3.7324-1.5791 1.5791-1.1006 2.3926-2.7275 0.86132-1.627 0.86132-3.876 0-4.2109-3.0146-6.5557-3.0146-2.3447-8.8525-2.3447z"/><path d="m391.14-72.543h31.056v13.111h-7.6562v46.32h7.6562v13.111h-31.056v-13.111h7.5127v-46.32h-7.5127z"/><path d="m462.72 1.292q-4.9287 0-9.4268-1.3398-4.498-1.3398-8.4219-3.7803-3.876-2.4404-7.082-5.8379-3.1582-3.4453-5.4072-7.6084-2.249-4.2109-3.4932-8.9961-1.2441-4.7852-1.2441-10.001 0-5.2158 1.2441-10.001 1.2442-4.833 3.4932-8.9961 2.249-4.2109 5.4072-7.6084 3.206-3.4453 7.082-5.8857 3.9238-2.4404 8.4219-3.7803 4.498-1.3398 9.4268-1.3398t9.4268 1.3398q4.5459 1.3398 8.4219 3.7803 3.9238 2.4404 7.082 5.8857 3.2061 3.3975 5.4551 7.6084 2.2969 4.1631 3.541 8.9961 1.2441 4.7852 1.2441 10.001 0 5.168-1.2441 10.001-1.2441 4.7852-3.541 8.9961-2.249 4.1631-5.4551 7.6084-3.1582 3.3975-7.082 5.8379-3.876 2.4404-8.4219 3.7803-4.498 1.3398-9.4268 1.3398zm0-15.025q4.1631 0 7.6084-1.7705 3.4932-1.8184 5.9814-4.8809 2.4883-3.1104 3.8281-7.1777 1.3877-4.1152 1.3877-8.709 0-4.6416-1.3877-8.7568-1.3877-4.1152-3.9238-7.1777-2.4883-3.1104-5.9336-4.8809-3.4453-1.8184-7.5606-1.8184-4.1152 0-7.5606 1.8184-3.4453 1.7705-5.9336 4.8809-2.4883 3.0625-3.9238 7.1777-1.3877 4.1152-1.3877 8.7568 0 4.5938 1.3877 8.709 1.4356 4.0674 3.9238 7.1777 2.4883 3.0625 5.9336 4.8809 3.4453 1.7705 7.5606 1.7705z"/><path d="m526.26-62.18h49.465v21.205h-13.371v-8.8184h-15.955v12.264h12.346v11.895h-12.346v14.396h15.955v-11.033h13.371v22.271h-49.465v-11.238h6.5215v-38.555h-6.5215z" fill="#707070"/><path d="m612.77-44.666q-0.20508-1.4355-1.0254-2.707-0.7793-1.2715-2.0508-2.1738-1.2305-0.94336-2.8301-1.4766-1.5586-0.5332-3.2812-0.5332-1.5586 0-2.9121 0.32812-1.3535 0.32812-2.3789 1.0254-0.98438 0.65625-1.5996 1.7227-0.57422 1.0664-0.57422 2.543 0 1.8457 0.77929 2.9531 0.82032 1.0664 2.0508 1.7637 1.2715 0.69727 2.7891 1.1074t2.9531 0.90234l11.279 3.7734q2.3379 0.82031 4.3887 2.2559 2.0508 1.4355 3.5274 3.4863 1.5176 2.0508 2.3789 4.7168 0.86133 2.666 0.86133 5.9883 0 4.5117-1.6816 8.2441-1.6406 3.7324-4.6348 6.3984-2.9941 2.666-7.1777 4.1426-4.1836 1.4766-9.2695 1.4766-3.5684 0-6.7676-0.82031-3.1582-0.7793-5.7832-2.2969-2.625-1.5176-4.5938-3.6094-1.9688-2.1328-3.0762-4.7988h-4.2246v-12.346h14.848v2.543q0 1.8457 0.57422 3.4043 0.61524 1.5586 1.8047 2.707 1.1894 1.1484 2.9941 1.8047 1.8047 0.61523 4.2246 0.61523 3.6914 0 5.6191-1.6816 1.9277-1.7227 1.9277-4.7578 0-1.5586-0.69726-2.584-0.65625-1.0664-1.7227-1.7637-1.0664-0.73828-2.3789-1.2305-1.3125-0.49219-2.584-0.90234l-9.3926-3.0352q-2.666-0.82031-5.168-2.2969-2.4609-1.4766-4.3887-3.6914-1.8867-2.2148-3.0352-5.168-1.1074-2.9941-1.1074-6.8086 0-4.4297 1.6406-7.875 1.6406-3.4863 4.5938-5.8652 2.9531-2.3789 7.0137-3.6094t8.9004-1.2305q3.8144 0 7.0547 0.90234 3.2402 0.86133 5.7832 2.3379 2.584 1.4766 4.3477 3.4043 1.8047 1.8867 2.748 3.9375h4.1016v12.387h-14.848z" fill="#707070"/><path d="m674.66-43.271q-2.2969-3.2812-4.1426-4.6348-1.8457-1.3945-3.9785-1.9688-2.1328-0.61523-4.4707-0.61523-3.4453 0-6.3984 1.5586-2.9531 1.5176-5.127 4.1836-2.1328 2.625-3.3633 6.1523-1.2305 3.4863-1.2305 7.4238 0 3.9785 1.1895 7.5059 1.2305 3.4863 3.3633 6.1113 2.1328 2.625 5.0859 4.1836 2.9531 1.5176 6.4805 1.5176 2.4609 0 4.5938-0.7793 2.1328-0.82031 3.8555-2.1328 1.7637-1.3125 3.0762-2.9941 1.3125-1.7227 2.0508-3.5684l13.207 3.6914q-1.2715 4.0195-3.7324 7.4648-2.4609 3.4043-5.9473 5.9062-3.4453 2.502-7.793 3.9375-4.3066 1.4355-9.3106 1.4355-4.2246 0-8.0801-1.1484-3.8555-1.1484-7.2188-3.2402-3.3223-2.0918-6.0703-5.0449-2.707-2.9531-4.6348-6.5215-1.9277-3.6094-2.9941-7.7109-1.0664-4.1426-1.0664-8.6133 0-6.6855 2.3379-12.51 2.3379-5.8652 6.3984-10.213 4.0605-4.3887 9.5156-6.8906 5.4961-2.543 11.812-2.543 5.0449 0 8.4902 1.2715 3.4453 1.2305 7.5879 4.9219h9.1875v13.863z" fill="#707070"/><path d="m725.81 1.1074q-4.2246 0-8.0801-1.1484-3.8555-1.1484-7.2188-3.2402-3.3223-2.0918-6.0703-5.0039-2.707-2.9531-4.6348-6.5215-1.9277-3.6094-2.9941-7.7109-1.0664-4.1016-1.0664-8.5723t1.0664-8.5723q1.0664-4.1426 2.9941-7.7109 1.9277-3.6094 4.6348-6.5215 2.748-2.9531 6.0703-5.0449 3.3633-2.0918 7.2188-3.2402 3.8555-1.1484 8.0801-1.1484t8.0801 1.1484q3.8965 1.1484 7.2188 3.2402 3.3633 2.0918 6.0703 5.0449 2.748 2.9121 4.6758 6.5215 1.9688 3.5684 3.0352 7.7109 1.0664 4.1016 1.0664 8.5723 0 4.4297-1.0664 8.5723-1.0664 4.1016-3.0352 7.7109-1.9277 3.5684-4.6758 6.5215-2.707 2.9121-6.0703 5.0039-3.3223 2.0918-7.2188 3.2402-3.8555 1.1484-8.0801 1.1484zm0-12.879q3.5684 0 6.5215-1.5176 2.9941-1.5586 5.127-4.1836 2.1328-2.666 3.2812-6.1523 1.1894-3.5273 1.1894-7.4648 0-3.9785-1.1894-7.5059t-3.3633-6.1523q-2.1328-2.666-5.0859-4.1836-2.9531-1.5586-6.4805-1.5586-3.5273 0-6.4805 1.5586-2.9531 1.5176-5.0859 4.1836-2.1328 2.625-3.3633 6.1523-1.1895 3.5273-1.1895 7.5059 0 3.9375 1.1895 7.4648 1.2305 3.4863 3.3633 6.1523 2.1328 2.625 5.0859 4.1836 2.9531 1.5176 6.4805 1.5176z" fill="#707070"/><path d="m764.11-62.18h26.619v11.279h-6.5625v39.662h13.535q0.53321 0 1.0254-0.28711 0.5332-0.32812 0.90234-0.82031 0.41016-0.49219 0.65625-1.0664 0.24609-0.57422 0.24609-1.1074v-8.3262h13.289v22.846h-49.711v-11.238h6.4394v-39.662h-6.4394z" fill="#707070"/><path d="m851.31-11.238h6.1934l-2.7891-8.9414h-19.113l-2.7891 8.9414h6.5625v11.238h-23.584v-11.238h4.6348l16.939-50.941h16.447l16.57 50.941h4.5117v11.238h-23.584zm-12.469-19.441h12.551l-6.3164-20.221z" fill="#707070"/><path d="m880.48-62.18h32.895q4.7988 0 8.5723 1.4355 3.7734 1.4355 6.3574 3.8555 2.584 2.3789 3.9375 5.5781 1.3945 3.1582 1.3945 6.6035 0 3.1582-0.69727 5.5371-0.65625 2.3789-1.9688 4.2246-1.2715 1.8457-3.1582 3.2812-1.8867 1.3945-4.3066 2.543 2.0918 1.0664 3.6914 3.2812 1.5996 2.1738 2.4199 5.6602l2.0918 8.0801h5.127l0.08204 12.1h-18.047l-2.4609-14.766q-0.36914-2.625-1.1484-4.5117-0.73829-1.9277-2.0098-3.1172-1.2715-1.2305-3.1172-1.8047-1.8047-0.57422-4.3066-0.57422h-5.291v13.535h5.7012v11.238h-25.758v-11.238h6.4394v-39.662h-6.4394zm20.057 11.279v15.053h8.1621q2.3379 0 4.1836-0.41016 1.8867-0.45117 3.1992-1.3535 1.3535-0.94336 2.0508-2.3379 0.73828-1.3945 0.73828-3.3223 0-3.6094-2.584-5.6191-2.584-2.0098-7.5879-2.0098z" fill="#707070"/><path d="m33.992 40.885h18.281v8.728h-3.9038v39.387h-10.537l-20.027-31.104v22.407h4.0308v8.6963h-18.25v-8.6963h3.9673v-30.691h-3.9038v-8.728h14.536l19.9 31.516v-22.788h-4.0942z"/><path d="m88.994 55.516q-1.7773-2.5391-3.2056-3.5864-1.4282-1.0791-3.0786-1.5234-1.6504-0.47607-3.4595-0.47607-2.666 0-4.9512 1.2061-2.2852 1.1743-3.9673 3.2373-1.6504 2.0312-2.6025 4.7607-0.95215 2.6978-0.95215 5.7446 0 3.0786 0.92041 5.8081 0.95215 2.6978 2.6025 4.729t3.9355 3.2373q2.2852 1.1743 5.0146 1.1743 1.9043 0 3.5547-0.60303 1.6504-0.63476 2.9834-1.6504 1.3647-1.0156 2.3804-2.3169 1.0156-1.333 1.5869-2.7612l10.22 2.8564q-0.98389 3.1104-2.8882 5.7764-1.9043 2.6343-4.602 4.5703-2.666 1.936-6.0303 3.0469-3.3325 1.1108-7.2046 1.1108-3.269 0-6.2524-0.88867-2.9834-0.88867-5.5859-2.5073-2.5708-1.6187-4.6973-3.9038-2.0947-2.2852-3.5864-5.0464-1.4917-2.793-2.3169-5.9668-0.8252-3.2056-0.8252-6.665 0-5.1733 1.8091-9.6802 1.8091-4.5386 4.9512-7.9028 3.1421-3.396 7.3633-5.332 4.2529-1.9678 9.1406-1.9678 3.9038 0 6.5698 0.98389 2.666 0.95215 5.8716 3.8086h7.1094v10.728z"/><path d="m151.33 55.516q-1.7773-2.5391-3.2056-3.5864-1.4282-1.0791-3.0786-1.5234-1.6504-0.47607-3.4595-0.47607-2.666 0-4.9512 1.2061-2.2852 1.1743-3.9673 3.2373-1.6504 2.0312-2.6025 4.7607-0.95215 2.6978-0.95215 5.7446 0 3.0786 0.92041 5.8081 0.95215 2.6978 2.6025 4.729t3.9355 3.2373q2.2852 1.1743 5.0146 1.1743 1.9043 0 3.5547-0.60303 1.6504-0.63476 2.9834-1.6504 1.3647-1.0156 2.3804-2.3169 1.0156-1.333 1.5869-2.7612l10.22 2.8564q-0.98389 3.1104-2.8882 5.7764-1.9043 2.6343-4.602 4.5703-2.666 1.936-6.0303 3.0469-3.3325 1.1108-7.2046 1.1108-3.269 0-6.2524-0.88867t-5.5859-2.5073q-2.5708-1.6187-4.6973-3.9038-2.0947-2.2852-3.5864-5.0464-1.4917-2.793-2.3169-5.9668-0.8252-3.2056-0.8252-6.665 0-5.1733 1.8091-9.6802 1.8091-4.5386 4.9512-7.9028 3.1421-3.396 7.3633-5.332 4.2529-1.9678 9.1406-1.9678 3.9038 0 6.5698 0.98389 2.666 0.95215 5.8716 3.8086h7.1094v10.728z"/><path d="m169.13 40.885h38.276v16.409h-10.347v-6.8237h-12.346v9.4897h9.5532v9.2041h-9.5532v11.14h12.346v-8.5376h10.347v17.234h-38.276v-8.6963h5.0464v-29.834h-5.0464z"/><path d="m212.93 40.885h20.598v8.728h-5.0781v30.691h10.474q0.4126 0 0.79346-0.22217 0.4126-0.25391 0.69824-0.63477 0.31738-0.38086 0.50781-0.8252t0.19043-0.85693v-6.4429h10.283v17.678h-38.467v-8.6963h4.9829v-30.691h-4.9829z"/><path d="m280.41 80.304h4.7925l-2.1582-6.9189h-14.79l-2.1582 6.9189h5.0781v8.6963h-18.25v-8.6963h3.5864l13.108-39.419h12.727l12.822 39.419h3.4912v8.6963h-18.25zm-9.6484-15.044h9.7119l-4.8877-15.647z"/><path d="m296.12 40.885h20.598v8.728h-4.0308l6.4429 11.045 6.8237-11.045h-4.602v-8.728h20.598v8.728h-3.5547l-14.314 19.424v11.267h5.8398v8.6963h-21.455v-8.6963h5.332v-11.394l-13.457-19.297h-4.2212z"/><path d="m368.54 80.304h4.7925l-2.1582-6.9189h-14.79l-2.1582 6.9189h5.0781v8.6963h-18.25v-8.6963h3.5864l13.108-39.419h12.727l12.822 39.419h3.4912v8.6963h-18.25zm-9.6484-15.044h9.7119l-4.8877-15.647z"/></g><g class="m" transform="translate(0,21)" clip-path="url(#i)"><path d="m83.2 0a83.2 83.2 0 0 0-83.2 83.2v72.8a10.4 10.4 0 1 0 20.8 0v-72.8a62.4 62.4 0 0 1 124.8 0v72.8a10.4 10.4 0 1 0 20.8 0v-72.8a83.2 83.2 0 0 0-83.2-83.2z"/><path d="m83.2 41.6a41.6 41.6 0 0 0-41.6 41.6v72.8a10.4 10.4 0 1 0 20.8 0v-72.8a20.8 20.8 0 0 1 41.6 0v72.8a10.4 10.4 0 1 0 20.8 0v-72.8a41.6 41.6 0 0 0-41.6-41.6z"/><g transform="translate(145.6)"><path transform="translate(-145.6)" d="m145.6 83.2a83.2 83.2 0 0 0 83.2 83.2h72.8a10.4 10.4 0 1 0 0-20.8h-72.8a62.4 62.4 0 1 1 0-124.8h72.8a10.4 10.4 0 1 0 0-20.8h-72.8a83.2 83.2 0 0 0-83.2 83.2z"/><path transform="translate(-145.6)" d="m187.2 83.2a41.6 41.6 0 0 0 41.6 41.6h72.8a10.4 10.4 0 0 0 0-20.8h-72.8a20.8 20.8 0 1 1 0-41.6h72.8a10.4 10.4 0 0 0 0-20.8h-72.8a41.6 41.6 0 0 0-41.6 41.6z"/></g></g></g></g></g></svg>