<svg xmlns="http://www.w3.org/2000/svg" xmlns:xlink="http://www.w3.org/1999/xlink" width="1920" height="1080" viewBox="0 0 1920 1080"><defs><style>@font-face{font-family:Arvo-Bold;font-weight:bold;src:url(https://raw.githubusercontent.com/Horario-Escolar-NC/media/HEAD/fonts/arvo-bold.woff2)format('woff2')}.a,.b{fill:#fff;}.b{stroke:#707070;}.c{clip-path:url(#i);}.d{opacity:0.15;clip-path:url(#a);}.e{opacity:0.2;clip-path:url(#b);}.f{opacity:0.25;clip-path:url(#c);}.g{opacity:0.17;clip-path:url(#d);}.h{opacity:0.1;clip-path:url(#e);}.i{clip-path:url(#f);}.j{font-size:98px;font-family:Arvo-Bold,Arvo;font-weight:700;}.k{fill:#707070;font-size:84px;}.l{font-size:65px;}.m{clip-path:url(#g);}</style><clipPath id="a"><circle class="a" cx="405.828" cy="405.828" r="405.828" transform="translate(128 146)"/></clipPath><clipPath id="b"><circle class="a" cx="118.774" cy="118.774" r="118.774" transform="translate(128 146)"/></clipPath><clipPath id="c"><circle class="a" cx="461" cy="461" r="461" transform="translate(128 146)"/></clipPath><clipPath id="d"><circle class="a" cx="280.605" cy="280.605" r="280.605" transform="translate(128 146)"/></clipPath><clipPath id="e"><circle class="a" cx="370.83" cy="370.83" r="370.83" transform="translate(128 146)"/></clipPath><clipPath id="f"><rect class="b" width="1320" height="208" transform="translate(300 436)"/></clipPath><clipPath id="g"><rect class="a" width="312" height="166.4"/></clipPath><clipPath id="i"><rect width="1920" height="1080"/></clipPath></defs><g id="h" class="c"><rect class="a" width="1920" height="1080"/><g transform="translate(-60.918 -365.991)"><g class="d" transform="translate(1080.724 576.13) rotate(-2)"><g transform="translate(128 146)"><path d="M406,0C181.774,0,0,181.774,0,406s181.774,406,406,406,406-181.774,406-406S630.234,0,406,0Zm0,773.341C203.13,773.341,38.667,608.878,38.667,406S203.13,38.667,406,38.667,773.341,203.13,773.341,406,608.878,773.341,406,773.341Z"/><g transform="translate(38.667 38.667)"><circle cx="19.334" cy="19.334" r="19.334" transform="translate(0 348.003)"/><circle cx="19.334" cy="19.334" r="19.334" transform="translate(696.007 348.003)"/><circle cx="19.334" cy="19.334" r="19.334" transform="translate(46.624 522.005)"/><circle cx="19.334" cy="19.334" r="19.334" transform="translate(649.382 174.002)"/><circle cx="19.334" cy="19.334" r="19.334" transform="translate(174.002 649.382)"/><circle cx="19.334" cy="19.334" r="19.334" transform="translate(522.005 46.624)"/><g transform="translate(348.003)"><circle cx="19.334" cy="19.334" r="19.334" transform="translate(0 696.007)"/><circle cx="19.334" cy="19.334" r="19.334"/></g><g transform="translate(174.002 46.624)"><circle cx="19.334" cy="19.334" r="19.334" transform="translate(348.003 602.759)"/><circle cx="19.334" cy="19.334" r="19.334"/></g><g transform="translate(46.624 174.002)"><circle cx="19.334" cy="19.334" r="19.334" transform="translate(602.759 348.003)"/><circle cx="19.334" cy="19.334" r="19.334"/></g></g></g></g><g class="e" transform="matrix(0.978, -0.208, 0.208, 0.978, 985.157, 608.449)"><g transform="translate(128 146)"><path d="M118.825,0A118.825,118.825,0,1,0,237.651,118.825,118.825,118.825,0,0,0,118.825,0Zm0,226.334A107.509,107.509,0,1,1,226.334,118.825,107.509,107.509,0,0,1,118.825,226.334Z"/><g transform="translate(11.317 11.317)"><circle cx="5.658" cy="5.658" r="5.658" transform="translate(0 101.85)"/><circle cx="5.658" cy="5.658" r="5.658" transform="translate(203.701 101.85)"/><circle cx="5.658" cy="5.658" r="5.658" transform="translate(13.645 152.775)"/><circle cx="5.658" cy="5.658" r="5.658" transform="translate(190.055 50.925)"/><circle cx="5.658" cy="5.658" r="5.658" transform="translate(50.925 190.055)"/><circle cx="5.658" cy="5.658" r="5.658" transform="translate(152.775 13.645)"/><g transform="translate(101.85)"><circle cx="5.658" cy="5.658" r="5.658" transform="translate(0 203.701)"/><circle cx="5.658" cy="5.658" r="5.658"/></g><g transform="translate(50.925 13.645)"><circle cx="5.658" cy="5.658" r="5.658" transform="translate(101.85 176.41)"/><circle cx="5.658" cy="5.658" r="5.658"/></g><g transform="translate(13.645 50.925)"><circle cx="5.658" cy="5.658" r="5.658" transform="translate(176.41 101.85)"/><circle cx="5.658" cy="5.658" r="5.658"/></g></g></g></g><g class="f" transform="matrix(0.995, 0.105, -0.105, 0.995, 578.558, -65.251)"><g transform="translate(128 146)"><path d="M461.2,0C206.486,0,0,206.486,0,461.2S206.486,922.4,461.2,922.4,922.4,715.914,922.4,461.2,715.914,0,461.2,0Zm0,878.477c-230.455,0-417.276-186.821-417.276-417.276S230.745,43.924,461.2,43.924,878.477,230.745,878.477,461.2,691.655,878.477,461.2,878.477Z"/><g transform="translate(43.924 43.924)"><circle cx="21.962" cy="21.962" r="21.962" transform="translate(0 395.314)"/><circle cx="21.962" cy="21.962" r="21.962" transform="translate(790.629 395.314)"/><circle cx="21.962" cy="21.962" r="21.962" transform="translate(52.962 592.972)"/><circle cx="21.962" cy="21.962" r="21.962" transform="translate(737.666 197.657)"/><circle cx="21.962" cy="21.962" r="21.962" transform="translate(197.657 737.666)"/><circle cx="21.962" cy="21.962" r="21.962" transform="translate(592.972 52.962)"/><g transform="translate(395.314)"><circle cx="21.962" cy="21.962" r="21.962" transform="translate(0 790.629)"/><circle cx="21.962" cy="21.962" r="21.962"/></g><g transform="translate(197.657 52.962)"><circle cx="21.962" cy="21.962" r="21.962" transform="translate(395.314 684.704)"/><circle cx="21.962" cy="21.962" r="21.962"/></g><g transform="translate(52.962 197.657)"><circle cx="21.962" cy="21.962" r="21.962" transform="translate(684.704 395.314)"/><circle cx="21.962" cy="21.962" r="21.962"/></g></g></g></g><g class="g" transform="matrix(0.998, -0.07, 0.07, 0.998, 282.46, 626.226)"><g transform="translate(128 146)"><path d="M280.727,0C125.686,0,0,125.686,0,280.727S125.686,561.453,280.727,561.453,561.453,435.767,561.453,280.727,435.768,0,280.727,0Zm0,534.717C140.451,534.717,26.736,421,26.736,280.727S140.451,26.736,280.727,26.736,534.717,140.451,534.717,280.727,421,534.717,280.727,534.717Z"/><g transform="translate(26.736 26.736)"><circle cx="13.368" cy="13.368" r="13.368" transform="translate(0 240.623)"/><circle cx="13.368" cy="13.368" r="13.368" transform="translate(481.245 240.623)"/><circle cx="13.368" cy="13.368" r="13.368" transform="translate(32.237 360.934)"/><circle cx="13.368" cy="13.368" r="13.368" transform="translate(449.007 120.311)"/><circle cx="13.368" cy="13.368" r="13.368" transform="translate(120.311 449.007)"/><circle cx="13.368" cy="13.368" r="13.368" transform="translate(360.934 32.237)"/><g transform="translate(240.623)"><circle cx="13.368" cy="13.368" r="13.368" transform="translate(0 481.245)"/><circle cx="13.368" cy="13.368" r="13.368"/></g><g transform="translate(120.311 32.237)"><circle cx="13.368" cy="13.368" r="13.368" transform="translate(240.623 416.77)"/><circle cx="13.368" cy="13.368" r="13.368"/></g><g transform="translate(32.237 120.311)"><circle cx="13.368" cy="13.368" r="13.368" transform="translate(416.77 240.623)"/><circle cx="13.368" cy="13.368" r="13.368"/></g></g></g></g><g class="h" transform="translate(43.725 -167.741) rotate(11)"><g transform="translate(128 146)"><path d="M370.991,0C166.1,0,0,166.1,0,370.991S166.1,741.982,370.991,741.982s370.991-166.1,370.991-370.991S575.884,0,370.991,0Zm0,706.65c-185.379,0-335.659-150.28-335.659-335.659S185.612,35.332,370.991,35.332,706.65,185.612,706.65,370.991,556.37,706.65,370.991,706.65Z"/><g transform="translate(35.332 35.332)"><circle cx="17.666" cy="17.666" r="17.666" transform="translate(0 317.992)"/><circle cx="17.666" cy="17.666" r="17.666" transform="translate(635.985 317.992)"/><circle cx="17.666" cy="17.666" r="17.666" transform="translate(42.603 476.988)"/><circle cx="17.666" cy="17.666" r="17.666" transform="translate(593.381 158.996)"/><circle cx="17.666" cy="17.666" r="17.666" transform="translate(158.996 593.381)"/><circle cx="17.666" cy="17.666" r="17.666" transform="translate(476.988 42.603)"/><g transform="translate(317.992)"><circle cx="17.666" cy="17.666" r="17.666" transform="translate(0 635.985)"/><circle cx="17.666" cy="17.666" r="17.666"/></g><g transform="translate(158.996 42.603)"><circle cx="17.666" cy="17.666" r="17.666" transform="translate(317.992 550.778)"/><circle cx="17.666" cy="17.666" r="17.666"/></g><g transform="translate(42.603 158.996)"><circle cx="17.666" cy="17.666" r="17.666" transform="translate(550.778 317.992)"/><circle cx="17.666" cy="17.666" r="17.666"/></g></g></g></g></g><g class="i"><g transform="translate(300 436)"><text class="j" transform="translate(345 94)"><tspan x="0" y="0">HORARIO </tspan><tspan class="k" y="0">ESCOLAR</tspan><tspan class="l"><tspan x="0" y="89">NC CELAYA</tspan></tspan></text><g class="m" transform="translate(0 21)"><path d="M83.2,0A83.2,83.2,0,0,0,0,83.2V156a10.4,10.4,0,1,0,20.8,0V83.2a62.4,62.4,0,0,1,124.8,0V156a10.4,10.4,0,1,0,20.8,0V83.2A83.2,83.2,0,0,0,83.2,0Z" transform="translate(0 0)"/><path d="M83.2,41.6A41.6,41.6,0,0,0,41.6,83.2V156a10.4,10.4,0,1,0,20.8,0V83.2a20.8,20.8,0,0,1,41.6,0V156a10.4,10.4,0,1,0,20.8,0V83.2A41.6,41.6,0,0,0,83.2,41.6Z" transform="translate(0 0)"/><g transform="translate(145.6 0)"><path d="M145.6,83.2a83.2,83.2,0,0,0,83.2,83.2h72.8a10.4,10.4,0,1,0,0-20.8H228.8a62.4,62.4,0,1,1,0-124.8h72.8a10.4,10.4,0,1,0,0-20.8H228.8a83.2,83.2,0,0,0-83.2,83.2Z" transform="translate(-145.6 0)"/><path d="M187.2,83.2a41.6,41.6,0,0,0,41.6,41.6h72.8a10.4,10.4,0,0,0,0-20.8H228.8a20.8,20.8,0,1,1,0-41.6h72.8a10.4,10.4,0,0,0,0-20.8H228.8a41.6,41.6,0,0,0-41.6,41.6Z" transform="translate(-145.6 0)"/></g></g></g></g></g></svg>